<svg width="16" height="17" viewBox="0 0 16 17" fill="none" xmlns="http://www.w3.org/2000/svg">
<path d="M3.3 12.4C3 12 2.7 11.3 2.1 10.4C1.8 9.89999 0.9 8.89999 0.6 8.49999C0.4 8.09999 0.4 7.89999 0.5 7.49999C0.6 6.89999 1.2 6.39999 1.9 6.39999C2.4 6.39999 2.9 6.79999 3.3 7.09999C3.5 7.29999 3.8 7.69999 4 7.89999C4.2 8.09999 4.2 8.19999 4.4 8.39999C4.6 8.69999 4.7 8.89999 4.6 8.49999C4.5 7.99999 4.4 7.19999 4.2 6.39999C4.1 5.79999 4 5.69999 3.9 5.29999C3.8 4.79999 3.7 4.49999 3.6 3.99999C3.5 3.69999 3.4 2.89999 3.3 2.49999C3.2 1.99999 3.2 1.09999 3.6 0.699987C3.9 0.399987 4.5 0.299987 4.9 0.499987C5.4 0.799987 5.7 1.49999 5.8 1.79999C6 2.29999 6.2 2.99999 6.3 3.79999C6.5 4.79999 6.8 6.29999 6.8 6.59999C6.8 6.19999 6.7 5.49999 6.8 5.09999C6.9 4.79999 7.1 4.39999 7.5 4.29999C7.8 4.19999 8.1 4.19999 8.4 4.19999C8.7 4.29999 9 4.49999 9.2 4.69999C9.6 5.29999 9.6 6.59999 9.6 6.49999C9.7 6.09999 9.7 5.29999 9.9 4.89999C10 4.69999 10.4 4.49999 10.6 4.39999C10.9 4.29999 11.3 4.29999 11.6 4.39999C11.8 4.39999 12.2 4.69999 12.3 4.89999C12.5 5.19999 12.6 6.19999 12.7 6.59999C12.7 6.69999 12.8 6.19999 13 5.89999C13.4 5.29999 14.8 5.09999 14.9 6.49999C14.9 7.19999 14.9 7.09999 14.9 7.59999C14.9 8.09999 14.9 8.39999 14.9 8.79999C14.9 9.19999 14.8 10.1 14.7 10.5C14.6 10.8 14.3 11.5 14 11.9C14 11.9 12.9 13.1 12.8 13.7C12.7 14.3 12.7 14.3 12.7 14.7C12.7 15.1 12.8 15.6 12.8 15.6C12.8 15.6 12 15.7 11.6 15.6C11.2 15.5 10.7 14.8 10.6 14.5C10.4 14.2 10.1 14.2 9.9 14.5C9.7 14.9 9.2 15.6 8.8 15.6C8.1 15.7 6.7 15.6 5.7 15.6C5.7 15.6 5.9 14.6 5.5 14.2C5.2 13.9 4.7 13.4 4.4 13.1L3.3 12.4Z" fill="white"/>
<path d="M3.3 12.4C3 12 2.7 11.3 2.1 10.4C1.8 9.89999 0.9 8.89999 0.6 8.49999C0.4 8.09999 0.4 7.89999 0.5 7.49999C0.6 6.89999 1.2 6.39999 1.9 6.39999C2.4 6.39999 2.9 6.79999 3.3 7.09999C3.5 7.29999 3.8 7.69999 4 7.89999C4.2 8.09999 4.2 8.19999 4.4 8.39999C4.6 8.69999 4.7 8.89999 4.6 8.49999C4.5 7.99999 4.4 7.19999 4.2 6.39999C4.1 5.79999 4 5.69999 3.9 5.29999C3.8 4.79999 3.7 4.49999 3.6 3.99999C3.5 3.69999 3.4 2.89999 3.3 2.49999C3.2 1.99999 3.2 1.09999 3.6 0.699987C3.9 0.399987 4.5 0.299987 4.9 0.499987C5.4 0.799987 5.7 1.49999 5.8 1.79999C6 2.29999 6.2 2.99999 6.3 3.79999C6.5 4.79999 6.8 6.29999 6.8 6.59999C6.8 6.19999 6.7 5.49999 6.8 5.09999C6.9 4.79999 7.1 4.39999 7.5 4.29999C7.8 4.19999 8.1 4.19999 8.4 4.19999C8.7 4.29999 9 4.49999 9.2 4.69999C9.6 5.29999 9.6 6.59999 9.6 6.49999C9.7 6.09999 9.7 5.29999 9.9 4.89999C10 4.69999 10.4 4.49999 10.6 4.39999C10.9 4.29999 11.3 4.29999 11.6 4.39999C11.8 4.39999 12.2 4.69999 12.3 4.89999C12.5 5.19999 12.6 6.19999 12.7 6.59999C12.7 6.69999 12.8 6.19999 13 5.89999C13.4 5.29999 14.8 5.09999 14.9 6.49999C14.9 7.19999 14.9 7.09999 14.9 7.59999C14.9 8.09999 14.9 8.39999 14.9 8.79999C14.9 9.19999 14.8 10.1 14.7 10.5C14.6 10.8 14.3 11.5 14 11.9C14 11.9 12.9 13.1 12.8 13.7C12.7 14.3 12.7 14.3 12.7 14.7C12.7 15.1 12.8 15.6 12.8 15.6C12.8 15.6 12 15.7 11.6 15.6C11.2 15.5 10.7 14.8 10.6 14.5C10.4 14.2 10.1 14.2 9.9 14.5C9.7 14.9 9.2 15.6 8.8 15.6C8.1 15.7 6.7 15.6 5.7 15.6C5.7 15.6 5.9 14.6 5.5 14.2C5.2 13.9 4.7 13.4 4.4 13.1L3.3 12.4Z" stroke="#333333" stroke-width="0.75" stroke-linecap="round" stroke-linejoin="round"/>
<path d="M11.6 12.7V9.29999" stroke="#333333" stroke-width="0.75" stroke-linecap="round"/>
<path d="M9.6 12.7L9.5 9.29999" stroke="#333333" stroke-width="0.75" stroke-linecap="round"/>
<path d="M7.6 9.29999V12.7" stroke="#333333" stroke-width="0.75" stroke-linecap="round"/>
</svg>
